<svg width="72" height="72" viewBox="0 0 72 72" fill="none" xmlns="http://www.w3.org/2000/svg">
<path d="M71.4075 30.4575H28.578V40.7831H71.4075V30.4575Z" fill="black"/>
<path d="M36.379 60.915C22.5073 60.915 11.2459 49.5813 11.2459 35.6203C11.2459 21.6593 22.5073 10.3256 36.379 10.3256C44.3621 10.3256 51.4649 14.0832 56.0788 19.918L63.7887 13.1056C57.2929 5.10171 47.4279 0 36.379 0C16.8311 0 0.986298 15.9467 0.986298 35.6203C0.986298 55.294 16.8311 71.2406 36.379 71.2406C47.4279 71.2406 57.2929 66.1389 63.7887 58.135L56.0788 51.3226C51.4953 57.1575 44.3621 60.915 36.379 60.915Z" fill="black"/>
</svg>
